<?xml version="1.0" encoding="UTF-8"?>
<svg width="761px" height="558px" viewBox="0 0 761 558" version="1.1" xmlns="http://www.w3.org/2000/svg" xmlns:xlink="http://www.w3.org/1999/xlink">
    <!-- Generator: Sketch 52.5 (67469) - http://www.bohemiancoding.com/sketch -->
    <title>Group 3</title>
    <desc>Created with Sketch.</desc>
    <g id="Desktop" stroke="none" stroke-width="1" fill="none" fill-rule="evenodd" opacity="0.0510835193">
        <g id="Home-1-Copy-4" transform="translate(-961.000000, -2540.000000)" fill="#FFFFFF">
            <g id="Group-3" transform="translate(961.000000, 2540.000000)">
                <path d="M237.56792,7 C235.243405,7 233.020176,7.14663509 230.989391,7.43990526 C227.327901,7.96576903 222.587714,9.23997737 220.860787,12.3193142 L42.9619793,329.091555 C28.2046027,355.364517 21.7121673,390.026018 26.6144118,422.220004 C30.9342616,450.555971 46.4107691,490.875564 95.1141633,511.338743 C122.431009,522.811675 171.737056,528.495048 214.170844,524.955581 C258.812668,521.218914 288.686986,508.355478 292.282641,491.810995 C297.564708,467.58081 268.176562,387.219726 249.636152,336.499155 C229.485294,281.409869 219.447847,252.765463 223.853789,241.272306 C230.56399,223.817674 246.05569,217.052235 265.730504,222.558635 C274.689255,225.066601 281.450098,231.306177 287.50194,236.908648 C291.695182,240.781837 296.491076,245.206172 300.218402,246.460155 C305.64227,246.429816 321.139035,236.974381 332.239985,230.198829 C346.506124,221.491739 362.266233,211.879556 379.687432,204.937143 C479.084492,165.340613 568.585904,173.066765 593.4415,178.881605 C603.281439,181.177202 612.275639,184.787459 619.472013,189.353372 C628.749815,195.244058 634.654791,202.575812 636.012024,210.049145 C640.03308,232.327566 604.451293,238.466014 569.477222,244.503335 C543.993653,248.897331 514.737179,253.9436 514.848594,265.386194 C514.894173,270.902707 529.302112,282.916671 570.819262,300.330852 C605.266645,314.781993 647.87262,328.449394 674.120898,335.791261 C734.538023,352.70486 734.198715,345.342767 733.970821,344.462957 C732.821225,340.19537 729.939637,334.481658 726.349046,327.352159 C720.545356,315.838777 712.852681,300.583671 708.097301,282.046973 C700.708484,253.185143 702.253097,231.912943 703.438143,215.676899 C704.243367,204.557914 704.927048,195.233945 702.632919,187.14879 C700.227376,178.669237 693.765326,170.316093 684.522975,163.570879 C674.586814,156.31497 661.328471,150.773175 646.135564,147.451132 C533.78402,122.88217 516.276727,130.4718 508.670145,133.758449 C507.890243,134.102283 507.155919,134.410722 506.451981,134.683767 C502.370153,136.787222 456.507832,160.430866 440.823689,168.339048 C421.984484,177.829877 414.39816,178.79059 390.540232,174.608962 C369.330934,170.892521 358.807314,170.8369 346.744147,172.060545 C337.061201,173.036427 312.134705,174.962908 280.356209,177.410197 C265.411453,178.563053 248.861314,179.842317 231.526207,181.202484 C212.621167,182.684004 202.102612,181.227766 196.648358,179.746246 C173.91977,173.592629 173.195575,156.370591 177.83954,147.279215 C181.582059,139.952517 187.12747,136.554628 195.382283,133.156739 C198.334771,131.938151 206.245211,128.782969 215.457176,125.112035 C228.943413,119.732044 245.412524,113.163803 252.735505,110.119861 C263.137582,105.796654 263.851648,104.011751 264.763223,101.771774 C265.411453,100.168901 266.606629,97.2058608 259.354548,88.584729 C247.179965,74.1234755 246.476027,67.6867008 249.124657,61.9426504 L268.470292,20.0353537 C269.391995,18.0330263 268.323427,15.9649659 265.315232,13.8867927 C261.901892,11.5254622 256.457767,9.52819117 249.995717,8.24892644 C245.827797,7.41967973 241.538333,7 237.56792,7 M188.345247,558 C148.490734,558 108.438745,551.503325 82.9847194,540.454935 C23.2561157,514.528855 5.53906041,464.439791 1.24524421,429.809379 C-3.40807783,392.339829 5.2301892,352.35951 22.9776253,322.316175 L207.444628,10.112022 C210.264976,5.33802648 217.044953,2.00380736 226.528818,0.654964175 C234.620231,-0.486753278 244.093969,-0.128072131 253.319598,1.67038545 C262.332561,3.42842826 270.201182,6.33829221 275.457056,9.8846889 C281.568655,14.0069962 283.913038,18.7506806 281.963605,23.2468246 L263.633871,65.5813036 C262.707257,67.7283387 261.132521,71.3656686 272.894944,84.8591523 C282.338302,95.6852607 282.120573,101.333226 280.424313,105.849577 C278.495134,110.962046 275.173502,114.589273 262.292053,120.065475 C254.777875,123.258242 238.078576,130.052977 224.402164,135.630216 C215.196789,139.378687 207.267406,142.606817 204.320471,143.84452 C197.98608,146.511895 195.986012,148.093123 194.142912,151.907268 C194.087214,152.02346 188.968053,164.021597 202.163436,167.517475 C203.976156,168.002453 211.232098,169.477592 228.209887,168.174215 C245.218058,166.865787 261.456582,165.638188 276.12037,164.531834 C307.134077,162.187777 331.484269,160.348904 340.720024,159.43452 C356.62436,157.868447 369.602014,158.575706 390.473607,162.162517 C408.970435,165.345181 411.740149,164.991552 427.168519,157.433988 C443.361473,149.487433 492.122616,125.036493 492.593518,124.799056 L493.282149,124.506049 C493.889765,124.288819 494.512571,124.021071 495.201202,123.733116 C505.854727,119.23192 525.298423,111.032772 643.368241,136.398097 C663.743615,140.778048 682.093603,148.451804 696.580169,158.803039 C710.200883,168.532897 719.867033,180.389582 723.593741,192.286682 C726.611565,201.945814 726.196361,212.064663 725.705205,224.158785 C725.011511,240.961229 724.201357,260.976647 732.069978,288.544577 C736.915711,305.528887 744.191907,319.219393 750.232617,330.56079 C754.480863,338.557864 758.227825,345.595087 760.116496,351.945259 C768.977556,381.816831 709.005906,364.670862 677.728898,355.72404 C648.365879,347.332922 604.13147,332.773499 567.304908,316.986477 C516.062667,295.026097 492.299838,276.384781 492.634026,259.678323 C493.028976,239.81446 524.336365,234.545383 556.995698,229.048973 C585.128296,224.320444 616.577461,219.026109 614.481188,205.21941 C613.893826,201.319384 611.043097,199.076364 608.962014,197.727521 C605.508732,195.489553 600.470587,193.514281 594.769128,192.165437 C575.872286,187.664242 488.892127,178.99022 391.577442,218.753309 C375.217394,225.431851 359.951055,235.03036 346.137929,243.714486 C324.491627,257.309006 309.762014,266.56399 295.918508,262.54272 C286.075137,259.663167 278.854639,252.787603 272.601263,246.821372 C268.474541,242.896086 263.861727,238.495928 260.529969,237.54618 C254.281656,235.752775 247.299141,234.878805 242.929373,247.159845 C240.341944,254.601216 257.162766,297.329739 270.712592,331.727767 C301.397174,409.667664 324.435929,471.431547 318.658518,501.964912 C311.397513,540.394313 259.719815,553.150227 217.384205,556.782505 C207.905403,557.605956 198.148111,558 188.345247,558" id="Fill-1"></path>
            </g>
        </g>
    </g>
</svg>